<?xml version="1.0" standalone="no"?>
<!DOCTYPE svg PUBLIC "-//W3C//DTD SVG 20010904//EN"
 "http://www.w3.org/TR/2001/REC-SVG-20010904/DTD/svg10.dtd">
<svg version="1.0" xmlns="http://www.w3.org/2000/svg"
 width="512.000000pt" height="512.000000pt" viewBox="0 0 512.000000 512.000000"
 preserveAspectRatio="xMidYMid meet">
<metadata>
Created by potrace 1.14, written by Peter Selinger 2001-2017
</metadata>
<g transform="translate(0.000000,512.000000) scale(0.100000,-0.100000)"
fill="#000000" stroke="none">
<path d="M0 2560 l0 -2560 2560 0 2560 0 0 2560 0 2560 -2560 0 -2560 0 0
-2560z m2003 1210 c115 -22 248 -62 323 -95 47 -21 54 -27 54 -53 0 -87 -72
-272 -125 -322 l-24 -23 -108 41 c-152 56 -206 71 -303 82 -106 12 -156 2
-192 -40 -50 -54 -30 -133 43 -170 22 -12 104 -44 182 -72 195 -69 301 -125
388 -206 118 -109 157 -192 166 -352 10 -176 -39 -304 -159 -414 -134 -125
-281 -175 -538 -183 -238 -8 -402 26 -616 126 -84 40 -84 40 -78 73 18 108
100 296 141 321 5 3 61 -16 124 -43 143 -62 210 -80 324 -87 111 -7 167 7 212
52 40 40 44 86 10 136 -28 42 -75 68 -192 110 -431 152 -570 293 -568 579 0
163 45 275 152 380 97 97 219 155 376 180 85 13 293 3 408 -20z m1631 0 c117
-30 215 -82 297 -158 144 -134 222 -295 260 -542 15 -100 6 -381 -16 -480 -63
-281 -225 -490 -452 -579 -102 -40 -204 -54 -362 -48 -244 8 -374 60 -522 207
-70 70 -93 101 -132 180 -117 236 -145 577 -73 864 58 228 194 409 376 501 57
29 167 62 245 75 93 14 288 4 379 -20z m574 -2223 c4 -54 -19 -143 -51 -199
l-21 -38 -1613 0 -1613 0 0 53 c0 76 24 146 66 195 l36 42 1596 -2 1597 -3 3
-48z"/>
<path d="M3305 3376 c-68 -31 -116 -114 -137 -239 -18 -107 -15 -454 5 -546
35 -158 103 -225 227 -225 187 1 249 148 237 574 -5 214 -18 283 -65 360 -39
63 -90 90 -172 89 -36 0 -78 -6 -95 -13z"/>
</g>
</svg>
